<?xml version="1.0" encoding="utf-8"?>
<!-- Generator: Adobe Illustrator 22.1.0, SVG Export Plug-In . SVG Version: 6.00 Build 0)  -->
<svg version="1.1" id="Rubix_logo" xmlns="http://www.w3.org/2000/svg" xmlns:xlink="http://www.w3.org/1999/xlink" x="0px" y="0px"
	 viewBox="0 0 283.5 80.5" style="enable-background:new 0 0 283.5 80.5;" xml:space="preserve">
<style type="text/css">
	.st0{fill:#ffd700;}
</style>
<path class="st0" d="M68.7,0h10.7c1.2,0,2.2,1,2.2,2.2v55.3c0,1.2,0.5,2.3,1.3,3.2l4.8,4.8c0.8,0.8,2,1.3,3.2,1.3h9.6
	c1.2,0,2.3-0.5,3.2-1.3l4.8-4.8c0.8-0.8,1.3-2,1.3-3.2V2.2c0-1.2,1-2.2,2.2-2.2h10.7c1.2,0,2.2,1,2.2,2.2V63c0,1.2-0.5,2.3-1.3,3.2
	l-13.1,13.1c-0.8,0.8-2,1.3-3.2,1.3H84c-1.2,0-2.3-0.5-3.2-1.3L67.8,66.2c-0.8-0.8-1.3-2-1.3-3.2V2.2C66.5,1,67.5,0,68.7,0z
	 M216.4,2.2c0-1.2-1-2.2-2.2-2.2h-10.7c-1.2,0-2.2,1-2.2,2.2v76.1c0,1.2,1,2.2,2.2,2.2h10.7c1.2,0,2.2-1,2.2-2.2V2.2z M192.7,51.7
	v12.6c0,1.8-0.7,3.5-2,4.7l-10.2,10.2c-0.8,0.8-2,1.3-3.2,1.3h-40.8c-1.2,0-2.2-1-2.2-2.2V2.2c0-1.2,1-2.2,2.2-2.2h39.8
	c1.2,0,2.3,0.5,3.2,1.3l10.2,10.2c1.3,1.3,2,3,2,4.7V29c0,1.8-0.7,3.5-2,4.7l-5.3,5.3c-0.6,0.6-0.6,1,0,1.6l6.3,6.3
	C192,48.2,192.7,49.9,192.7,51.7z M176.6,21.2c0-1.2-0.5-2.3-1.3-3.2l-2.9-2.9c-0.8-0.8-2-1.3-3.2-1.3h-18.5c-0.6,0-1.1,0.5-1.1,1.1
	v50.8c0,0.6,0.5,1.1,1.1,1.1h18.7c1.2,0,2.3-0.5,3.2-1.3l3.2-3.2c0.8-0.8,1.3-2,1.3-3.2v-4.5c0-1.2-0.5-2.3-1.3-3.2l-2.9-2.9
	c-0.8-0.8-2-1.3-3.2-1.3h-14c-0.6,0-1.1-0.5-1.1-1.1V34.5c0-0.6,0.5-1.1,1.1-1.1h13.1c1.2,0,2.3-0.5,3.2-1.3l3.2-3.2
	c0.8-0.8,1.3-2,1.3-3.2V21.2z M256.5,21.3l7.3,12.6c0.4,0.7,1.1,0.7,1.6,0l17.8-30.8c0.8-1.5,0.1-3.2-1.6-3.2l-11.7,0
	c-1.9,0-2.6,0.9-3.3,2.2l-9.9,17.2C256.1,20.2,256.1,20.7,256.5,21.3z M256.6,61.1l9.9,17.2c0.8,1.3,1.5,2.2,3.3,2.2h11.7
	c1.7,0,2.5-1.7,1.6-3.2l-17.8-30.8c-0.4-0.8-1.1-0.8-1.6,0l-7.3,12.6C256.1,59.9,256.1,60.3,256.6,61.1z M61.1,77.7L48.1,49
	c-0.2-0.4-0.1-0.9,0.2-1.3l8-8.1c1.3-1.3,2-3,2-4.7V17.3c0-1.8-0.7-3.5-2-4.7L45.2,1.3C44.3,0.5,43.2,0,42,0H2.2C1,0,0,1,0,2.2v76.1
	c0,1.2,1,2.2,2.2,2.2h10.7c1.2,0,2.2-1,2.2-2.2V14.9c0-0.6,0.5-1.1,1.1-1.1h18.4c0.6,0,1.2,0.2,1.6,0.7l5.5,5.5
	c0.8,0.8,1.3,2,1.3,3.2v7.4c0,1.2-0.5,2.3-1.3,3.2l-5.5,5.5c-0.4,0.4-1,0.7-1.6,0.7H21.3c-0.6,0-1.1,0.5-1.1,1.1v11.5
	c0,0.6,0.5,1.1,1.1,1.1h10.9c0.9,0,1.7,0.5,2,1.3l11.1,24.4c0.4,0.8,1.2,1.3,2,1.3h12.2C61,80.5,61.8,79.1,61.1,77.7z M261.2,39.4
	L239.7,2.2c-0.8-1.3-1.5-2.2-3.3-2.2h-11.7c-1.7,0-2.5,1.7-1.6,3.2l21,36.3c0.3,0.6,0.4,1,0,1.6l-21,36.3c-0.8,1.5-0.1,3.2,1.6,3.2
	h11.7c1.9,0,2.6-0.9,3.3-2.2l21.5-37.2C261.6,40.5,261.6,40.1,261.2,39.4z"/>
</svg>
