<?xml version="1.0" encoding="UTF-8"?>
<svg width="284px" height="82px" viewBox="0 0 284 82" version="1.1" xmlns="http://www.w3.org/2000/svg" xmlns:xlink="http://www.w3.org/1999/xlink">
    <title>Shape</title>
    <g id="Page-1" stroke="none" stroke-width="1" fill="none" fill-rule="evenodd">
        <path d="M68.7,1 L79.4,1 C80.6,1 81.6,2 81.6,3.2 L81.6,58.5 C81.6,59.7 82.1,60.8 82.9,61.7 L87.7,66.5 C88.5,67.3 89.7,67.8 90.9,67.8 L100.5,67.8 C101.7,67.8 102.8,67.3 103.7,66.5 L108.5,61.7 C109.3,60.9 109.8,59.7 109.8,58.5 L109.8,3.2 C109.8,2 110.8,1 112,1 L122.7,1 C123.9,1 124.9,2 124.9,3.2 L124.9,64 C124.9,65.2 124.4,66.3 123.6,67.2 L110.5,80.3 C109.7,81.1 108.5,81.6 107.3,81.6 L84,81.6 C82.8,81.6 81.7,81.1 80.8,80.3 L67.8,67.2 C67,66.4 66.5,65.2 66.5,64 L66.5,3.2 C66.5,2 67.5,1 68.7,1 Z M216.4,3.2 C216.4,2 215.4,1 214.2,1 L203.5,1 C202.3,1 201.3,2 201.3,3.2 L201.3,79.3 C201.3,80.5 202.3,81.5 203.5,81.5 L214.2,81.5 C215.4,81.5 216.4,80.5 216.4,79.3 L216.4,3.2 Z M192.7,52.7 L192.7,65.3 C192.7,67.1 192,68.8 190.7,70 L180.5,80.2 C179.7,81 178.5,81.5 177.3,81.5 L136.5,81.5 C135.3,81.5 134.3,80.5 134.3,79.3 L134.3,3.2 C134.3,2 135.3,1 136.5,1 L176.3,1 C177.5,1 178.6,1.5 179.5,2.3 L189.7,12.5 C191,13.8 191.7,15.5 191.7,17.2 L191.7,30 C191.7,31.8 191,33.5 189.7,34.7 L184.4,40 C183.8,40.6 183.8,41 184.4,41.6 L190.7,47.9 C192,49.2 192.7,50.9 192.7,52.7 Z M176.6,22.2 C176.6,21 176.1,19.9 175.3,19 L172.4,16.1 C171.6,15.3 170.4,14.8 169.2,14.8 L150.7,14.8 C150.1,14.8 149.6,15.3 149.6,15.9 L149.6,66.7 C149.6,67.3 150.1,67.8 150.7,67.8 L169.4,67.8 C170.6,67.8 171.7,67.3 172.6,66.5 L175.8,63.3 C176.6,62.5 177.1,61.3 177.1,60.1 L177.1,55.6 C177.1,54.4 176.6,53.3 175.8,52.4 L172.9,49.5 C172.1,48.7 170.9,48.2 169.7,48.2 L155.7,48.2 C155.1,48.2 154.6,47.7 154.6,47.1 L154.6,35.5 C154.6,34.9 155.1,34.4 155.7,34.4 L168.8,34.4 C170,34.4 171.1,33.9 172,33.1 L175.2,29.9 C176,29.1 176.5,27.9 176.5,26.7 L176.5,22.2 L176.6,22.2 Z M256.5,22.3 L263.8,34.9 C264.2,35.6 264.9,35.6 265.4,34.9 L283.2,4.1 C284,2.6 283.3,0.9 281.6,0.9 L269.9,0.9 C268,0.9 267.3,1.8 266.6,3.1 L256.7,20.3 C256.1,21.2 256.1,21.7 256.5,22.3 Z M256.6,62.1 L266.5,79.3 C267.3,80.6 268,81.5 269.8,81.5 L281.5,81.5 C283.2,81.5 284,79.8 283.1,78.3 L265.3,47.5 C264.9,46.7 264.2,46.7 263.7,47.5 L256.4,60.1 C256.1,60.9 256.1,61.3 256.6,62.1 Z M61.1,78.7 L48.1,50 C47.9,49.6 48,49.1 48.3,48.7 L56.3,40.6 C57.6,39.3 58.3,37.6 58.3,35.9 L58.3,18.3 C58.3,16.5 57.6,14.8 56.3,13.6 L45.2,2.3 C44.3,1.5 43.2,1 42,1 L2.2,1 C1,1 0,2 0,3.2 L0,79.3 C0,80.5 1,81.5 2.2,81.5 L12.9,81.5 C14.1,81.5 15.1,80.5 15.1,79.3 L15.1,15.9 C15.1,15.3 15.6,14.8 16.2,14.8 L34.6,14.8 C35.2,14.8 35.8,15 36.2,15.5 L41.7,21 C42.5,21.8 43,23 43,24.2 L43,31.6 C43,32.8 42.5,33.9 41.7,34.8 L36.2,40.3 C35.8,40.7 35.2,41 34.6,41 L21.3,41 C20.7,41 20.2,41.5 20.2,42.1 L20.2,53.6 C20.2,54.2 20.7,54.7 21.3,54.7 L32.2,54.7 C33.1,54.7 33.9,55.2 34.2,56 L45.3,80.4 C45.7,81.2 46.5,81.7 47.3,81.7 L59.5,81.7 C61,81.5 61.8,80.1 61.1,78.7 Z M261.2,40.4 L239.7,3.2 C238.9,1.9 238.2,1 236.4,1 L224.7,1 C223,1 222.2,2.7 223.1,4.2 L244.1,40.5 C244.4,41.1 244.5,41.5 244.1,42.1 L223.1,78.4 C222.3,79.9 223,81.6 224.7,81.6 L236.4,81.6 C238.3,81.6 239,80.7 239.7,79.4 L261.2,42.2 C261.6,41.5 261.6,41.1 261.2,40.4 Z" id="Shape" fill="#FFFFFF" fill-rule="nonzero"></path>
    </g>
</svg>